<svg xmlns="http://www.w3.org/2000/svg" xmlns:xlink="http://www.w3.org/1999/xlink" width="800" height="700" viewBox="0 0 800 700">
  <defs>
    <clipPath id="clip-path">
      <path id="SVGID" d="M121.291,230.343l24.855,276.839a6.836,6.836,0,0,0,6.808,6.225H309.382a6.05,6.05,0,0,0,6.023-6.614l-13.235-143.4,145.3-72.142-39-67.494L326.9,196.445l34.91-92.261L300.78,64.136l-85.774,49.669Z" transform="translate(-121.291 -64.136)" fill="none"/>
    </clipPath>
    <clipPath id="clip-path-2">
      <path id="Path_1115" data-name="Path 1115" d="M275.19,141.636s-2.978-11.2-17.377-3.7C257.813,137.933,263,147.109,275.19,141.636Z" transform="translate(-257.813 -135.349)" fill="#fff"/>
    </clipPath>
    <clipPath id="clip-path-3">
      <path id="Path_1119" data-name="Path 1119" d="M281.108,142.019s3.411-9.26,11.314-.44C292.422,141.579,286.377,149.323,281.108,142.019Z" transform="translate(-281.108 -137.77)" fill="#fff"/>
    </clipPath>
    <clipPath id="clip-path-4">
      <path id="Path_1125" data-name="Path 1125" d="M281.923,155.255l-16.4-2.882s-1.425,7.652,7.229,8.991S281.923,155.255,281.923,155.255Z" transform="translate(-265.434 -152.373)"/>
    </clipPath>
    <clipPath id="clip-path-5">
      <path id="SVGID-2" data-name="SVGID" d="M663.047,230.343,638.095,507.835c-.316,3.524-2.255,5.572-5.793,5.572H474.956a6.052,6.052,0,0,1-6.025-6.614l13.236-143.4L352.921,252.679l3.207-44.993,101.305-11.241-34.91-92.261,61.035-40.048,124.557,10.39Z" transform="translate(-352.921 -64.136)" fill="#263238"/>
    </clipPath>
    <clipPath id="clip-path-6">
      <path id="Path_1162" data-name="Path 1162" d="M471.27,147.745s1.988-11.435,17.014-5.22C488.284,142.525,483.919,152.137,471.27,147.745Z" transform="translate(-471.27 -140.675)" fill="#fff"/>
    </clipPath>
    <clipPath id="clip-path-7">
      <path id="Path_1166" data-name="Path 1166" d="M464.553,148.691s-4.215-8.94-11.329.554C453.224,149.245,459.935,156.443,464.553,148.691Z" transform="translate(-453.224 -144.877)" fill="#fff"/>
    </clipPath>
    <clipPath id="clip-Dating_ApplicationDevelopment_Company_Vector">
      <rect width="800" height="700"/>
    </clipPath>
  </defs>
  <g id="Dating_ApplicationDevelopment_Company_Vector" data-name="Dating ApplicationDevelopment Company Vector" clip-path="url(#clip-Dating_ApplicationDevelopment_Company_Vector)">
    <rect width="800" height="700" fill="rgba(255,255,255,0)"/>
    <g id="Group_587" data-name="Group 587" transform="translate(-29.3 65.439)">
      <g id="Group_435" data-name="Group 435" transform="translate(29.301 41.561)">
        <path id="Path_1053" data-name="Path 1053" d="M64.55,471.887H773.645S731.665,362.845,630.65,367.138c-51.71,2.2-60.123,44.472-100.959,63.949-23.067,11-52.081,9.562-74.458-2.32A177.024,177.024,0,0,1,419.1,402.824c-45.285-41.34-74.835-11.552-98.34,4.408s-62.284,56.405-99.5,39.138S118.642,393.245,64.55,471.887Z" transform="translate(-23.322 13.637)" fill="#ffc2a4"/>
        <g id="Group_434" data-name="Group 434">
          <g id="Group_419" data-name="Group 419" transform="translate(373.767 5.549)">
            <g id="Group_416" data-name="Group 416" transform="translate(254.462)">
              <path id="Path_1054" data-name="Path 1054" d="M626.568,86.692l-60.137-6.78,66.033-33.606Z" transform="translate(-566.431 -46.306)" fill="rgba(250,195,152,0)" stroke="#fac398" stroke-miterlimit="10" stroke-width="1.394"/>
              <path id="Path_1055" data-name="Path 1055" d="M603.541,84.989l-14.706,18.934V82.678l38.9-35.263" transform="translate(-562.632 -46.118)" fill="rgba(250,195,152,0)" stroke="#fac398" stroke-miterlimit="10" stroke-width="1.394"/>
            </g>
            <g id="Group_418" data-name="Group 418" transform="translate(0 291.274)">
              <g id="Group_417" data-name="Group 417">
                <path id="Path_1056" data-name="Path 1056" d="M348.873,324.745l43.574,1.418-43.578-30.821Z" transform="translate(-348.868 -295.343)" fill="rgba(250,195,152,0)" stroke="#fac398" stroke-linecap="round" stroke-linejoin="round" stroke-width="1.117"/>
                <path id="Path_1057" data-name="Path 1057" d="M362.66,325.516l8.515,15.026,2.209-15.145L349.32,296.216" transform="translate(-348.792 -295.195)" fill="rgba(250,195,152,0)" stroke="#fac398" stroke-linecap="round" stroke-linejoin="round" stroke-width="1.117"/>
              </g>
              <path id="Path_1058" data-name="Path 1058" d="M368.765,338.144c1.207,9.347,5.5,18.448,12.676,24.559s17.328,8.906,26.4,6.357a11.161,11.161,0,0,0,5.636-3.443c3.863-4.629,1.9-11.067-1.189-13.992-3.662-3.464-9.446-4.4-13.556-1.482s-6.009,8.212-6.026,13.253a23.419,23.419,0,0,0,41.714,14.695" transform="translate(-345.494 -288.084)" fill="rgba(250,195,152,0)" stroke="#fac398" stroke-miterlimit="10" stroke-width="1.007"/>
            </g>
          </g>
          <g id="Group_421" data-name="Group 421" transform="translate(15.873 3.164)">
            <circle id="Ellipse_103" data-name="Ellipse 103" cx="13.412" cy="13.412" r="13.412" transform="translate(727.163 230.411) rotate(-45)" fill="none" stroke="#fac398" stroke-linecap="round" stroke-linejoin="round" stroke-width="1.394"/>
            <line id="Line_1" data-name="Line 1" x2="35.087" transform="translate(0 395.683)" fill="none" stroke="#fac398" stroke-linecap="round" stroke-linejoin="round" stroke-width="1.394"/>
            <line id="Line_2" data-name="Line 2" x2="24.434" transform="translate(7.31 99.389)" fill="none" stroke="#fac398" stroke-linecap="round" stroke-linejoin="round" stroke-width="1.394"/>
            <g id="Group_420" data-name="Group 420" transform="translate(426.652 9.632)">
              <line id="Line_3" data-name="Line 3" x2="52.232" y2="0.117" transform="translate(0 5.095)" fill="none" stroke="#fac398" stroke-linecap="round" stroke-linejoin="round" stroke-width="1.394"/>
              <path id="Path_1059" data-name="Path 1059" d="M487.358,57.751a5.239,5.239,0,1,1-5.228-5.25A5.239,5.239,0,0,1,487.358,57.751Z" transform="translate(-395.916 -52.501)" fill="none" stroke="#fac398" stroke-linecap="round" stroke-linejoin="round" stroke-width="1.394"/>
            </g>
            <path id="Path_1060" data-name="Path 1060" d="M66.574,319.924a8.361,8.361,0,1,1-8.344-8.378A8.362,8.362,0,0,1,66.574,319.924Z" transform="translate(-41.689 1.065)" fill="#fac398" stroke="#fac398" stroke-width="1"/>
            <path id="Path_1061" data-name="Path 1061" d="M364.934,52.645a8.361,8.361,0,1,1-8.344-8.379A8.362,8.362,0,0,1,364.934,52.645Z" transform="translate(8.914 -44.266)" fill="#fac398" stroke="#fac398" stroke-width="1"/>
            <path id="Path_1062" data-name="Path 1062" d="M261.395,60.139a5.24,5.24,0,1,1-5.229-5.252A5.239,5.239,0,0,1,261.395,60.139Z" transform="translate(-7.588 -42.465)" fill="none" stroke="#fac398" stroke-linecap="round" stroke-linejoin="round" stroke-width="1.394"/>
            <path id="Path_1063" data-name="Path 1063" d="M344.479,198.49a5.408,5.408,0,1,1-5.4-5.42A5.407,5.407,0,0,1,344.479,198.49Z" transform="translate(6.447 -19.029)" fill="#fac398" stroke="#fac398" stroke-width="1"/>
          </g>
          <g id="Group_428" data-name="Group 428" transform="translate(0 41.442)">
            <g id="Group_423" data-name="Group 423" transform="translate(0 151.989)">
              <g id="Group_422" data-name="Group 422">
                <circle id="Ellipse_104" data-name="Ellipse 104" cx="26.616" cy="26.616" r="26.616" transform="matrix(0.973, -0.23, 0.23, 0.973, 0, 12.23)" fill="#ed7d2b" stroke="#fac398" stroke-width="1"/>
              </g>
              <path id="Path_1064" data-name="Path 1064" d="M67.322,228.693a5.517,5.517,0,0,0-7.807.083l-1.406,1.435-1.448-1.425a5.52,5.52,0,1,0-7.746,7.867l5.371,5.289c.011.012.019.026.029.036a5.521,5.521,0,0,0,7.807-.082l5.283-5.4A5.522,5.522,0,0,0,67.322,228.693Z" transform="translate(-26.254 -203.521)" fill="#fff" stroke="#fac398" stroke-width="1"/>
            </g>
            <g id="Group_425" data-name="Group 425" transform="translate(723.911 279.13)">
              <g id="Group_424" data-name="Group 424">
                <circle id="Ellipse_105" data-name="Ellipse 105" cx="22.741" cy="22.741" r="22.741" transform="translate(0 32.161) rotate(-45)" fill="#ed7d2b" stroke="#fac398" stroke-width="1"/>
              </g>
              <path id="Path_1065" data-name="Path 1065" d="M684.832,338.337a4.713,4.713,0,0,0-6.67.07l-1.2,1.227-1.236-1.218a4.717,4.717,0,1,0-6.619,6.722l4.588,4.519c.009.009.016.021.026.03a4.717,4.717,0,0,0,6.67-.07l4.513-4.609A4.719,4.719,0,0,0,684.832,338.337Z" transform="translate(-644.939 -312.028)" fill="#fff" stroke="#fac398" stroke-width="1"/>
            </g>
            <g id="Group_427" data-name="Group 427" transform="translate(732.925)">
              <g id="Group_426" data-name="Group 426">
                <circle id="Ellipse_106" data-name="Ellipse 106" cx="27.9" cy="27.9" r="27.9" transform="translate(0 54.337) rotate(-76.854)" fill="#ed7d2b" stroke="#fac398" stroke-width="1"/>
              </g>
              <path id="Path_1066" data-name="Path 1066" d="M695.757,99.75a5.782,5.782,0,0,0-8.182.087l-1.475,1.505-1.516-1.494a5.786,5.786,0,1,0-8.12,8.246l5.629,5.545c.012.012.02.026.032.037a5.787,5.787,0,0,0,8.183-.087l5.538-5.655A5.789,5.789,0,0,0,695.757,99.75Z" transform="translate(-652.759 -73.414)" fill="#fff" stroke="#fac398" stroke-width="1"/>
            </g>
          </g>
          <g id="Group_433" data-name="Group 433" transform="translate(92.48)">
            <g id="Group_430" data-name="Group 430" transform="translate(264.058 53.878)">
              <g id="Group_429" data-name="Group 429">
                <path id="Path_1067" data-name="Path 1067" d="M407.9,177.843l-58.981-13.379a5.481,5.481,0,0,1-4.267-5.344V93.108a5.479,5.479,0,0,1,6.878-5.3l58.981,15.576a5.479,5.479,0,0,1,4.08,5.3V172.5A5.479,5.479,0,0,1,407.9,177.843Z" transform="translate(-332.355 -87.626)" fill="none" stroke="#fac398" stroke-miterlimit="10" stroke-width="1.394"/>
                <path id="Path_1068" data-name="Path 1068" d="M402.567,183.911a6.839,6.839,0,0,1-5.181,1.4L338.4,171.932a5.479,5.479,0,0,1-4.267-5.344V100.575a5.438,5.438,0,0,1,1.828-4.085" transform="translate(-334.138 -86.123)" fill="none" stroke="#fac398" stroke-miterlimit="10" stroke-width="1.394"/>
                <line id="Line_4" data-name="Line 4" x1="11.162" y2="8.332" transform="translate(67.923 89.833)" fill="none" stroke="#fac398" stroke-miterlimit="10" stroke-width="1.394"/>
                <line id="Line_5" data-name="Line 5" y1="9.515" x2="13.02" transform="translate(1.828 0.851)" fill="none" stroke="#fac398" stroke-miterlimit="10" stroke-width="1.394"/>
              </g>
              <path id="Path_1069" data-name="Path 1069" d="M393.564,118.02c-3.62-5.269-9.7-6.421-13.58-2.577l-2.56,2.531-2.4-3.513c-3.6-5.278-9.684-6.449-13.58-2.626s-4.13,11.2-.523,16.477l8.911,13.039c.019.027.03.058.049.087a11.363,11.363,0,0,0,5.128,4.249,7.684,7.684,0,0,0,8.453-1.673l9.62-9.509C396.964,130.663,397.18,123.284,393.564,118.02Z" transform="translate(-330.03 -83.901)" fill="#fac398" stroke="#fac398" stroke-width="1"/>
            </g>
            <g id="Group_432" data-name="Group 432" transform="translate(0)">
              <g id="Group_431" data-name="Group 431">
                <path id="Path_1070" data-name="Path 1070" d="M110.887,69.7l28.77,35.052a4.11,4.11,0,0,0,5.015,1.068L188.93,83.658a4.109,4.109,0,0,0,1.243-6.39L159.931,42.954A4.107,4.107,0,0,0,155.009,42L112.224,63.419A4.109,4.109,0,0,0,110.887,69.7Z" transform="translate(-108.102 -41.561)" fill="#fac398" stroke="#fac398" stroke-width="1"/>
                <path id="Path_1071" data-name="Path 1071" d="M110.887,69.7l28.77,35.052a4.11,4.11,0,0,0,5.015,1.068L188.93,83.658a4.109,4.109,0,0,0,1.243-6.39L159.931,42.954A4.107,4.107,0,0,0,155.009,42L112.224,63.419A4.109,4.109,0,0,0,110.887,69.7Z" transform="translate(-108.102 -41.561)" fill="none" stroke="#fac398" stroke-miterlimit="10" stroke-width="1.359"/>
                <path id="Path_1072" data-name="Path 1072" d="M108.469,71.868a5.124,5.124,0,0,0,.8,3.945l28.769,35.052a4.108,4.108,0,0,0,5.015,1.068l44.258-22.159a4.08,4.08,0,0,0,2.126-2.6" transform="translate(-108.37 -36.421)" fill="none" stroke="#fac398" stroke-miterlimit="10" stroke-width="1.359"/>
                <line id="Line_6" data-name="Line 6" x1="1.84" y2="10.28" transform="translate(0.016 25.633)" fill="none" stroke="#fac398" stroke-miterlimit="10" stroke-width="1.359"/>
                <line id="Line_7" data-name="Line 7" y1="11.923" x2="2.009" transform="translate(81.067 38.831)" fill="none" stroke="#fac398" stroke-miterlimit="10" stroke-width="1.359"/>
              </g>
              <path id="Path_1073" data-name="Path 1073" d="M152.8,58.135c-4.142-1.254-6.656.706-7.3,4.414l-.309,1.766-2.75-1.012c-4.653-1.95-10.176.723-10.835,4.423s2.157,7.935,6.288,9.454L148.1,80.937c.021.007.041.02.062.028a7.819,7.819,0,0,0,4.573.337,5.3,5.3,0,0,0,4.076-4.315l1.6-9.177C159.052,64.1,157.007,59.41,152.8,58.135Z" transform="translate(-104.446 -38.814)" fill="#fff" stroke="#fac398" stroke-width="1"/>
            </g>
          </g>
        </g>
      </g>
      <g id="Group_478" data-name="Group 478" transform="translate(101.206 67.965)">
        <g id="Group_437" data-name="Group 437" transform="translate(0 79.842)">
          <path id="Path_1074" data-name="Path 1074" d="M138.24,511.679H295.146a15.648,15.648,0,0,0,15.583-17.071L278.915,146.624A15.647,15.647,0,0,0,263.334,132.4H106.427a15.647,15.647,0,0,0-15.581,17.073l31.812,347.984A15.646,15.646,0,0,0,138.24,511.679Z" transform="translate(-90.779 -132.4)" fill="#343030"/>
          <path id="Path_1075" data-name="Path 1075" d="M154.822,511.679H311.728a15.646,15.646,0,0,0,15.583-17.071L295.5,146.624A15.648,15.648,0,0,0,279.916,132.4H123.01a15.648,15.648,0,0,0-15.583,17.073L139.24,497.456A15.647,15.647,0,0,0,154.822,511.679Z" transform="translate(-87.967 -132.4)" fill="#fff"/>
          <path id="Path_1076" data-name="Path 1076" d="M279.916,142.25a5.77,5.77,0,0,1,5.774,5.27L317.5,495.5a5.8,5.8,0,0,1-5.774,6.326H154.822a5.769,5.769,0,0,1-5.773-5.27L117.236,148.576a5.8,5.8,0,0,1,5.774-6.325H279.916m0-9.85H123.01a15.648,15.648,0,0,0-15.583,17.073L139.24,497.456a15.647,15.647,0,0,0,15.583,14.222H311.728a15.646,15.646,0,0,0,15.583-17.071L295.5,146.624A15.648,15.648,0,0,0,279.916,132.4Z" transform="translate(-87.967 -132.4)" fill="#343030"/>
          <g id="Group_436" data-name="Group 436" transform="translate(70.126 1.178)">
            <path id="Path_1077" data-name="Path 1077" d="M160.816,153.718h78.735a8.822,8.822,0,0,0,8.765-9.813l-1.091-10.5H150.736l1.315,12.483A8.821,8.821,0,0,0,160.816,153.718Z" transform="translate(-150.736 -133.407)" fill="#343030"/>
            <line id="Line_8" data-name="Line 8" x1="39.75" transform="translate(31.878 8.869)" fill="none" stroke="#fff" stroke-linecap="round" stroke-linejoin="round" stroke-width="1.053"/>
          </g>
        </g>
        <g id="Group_477" data-name="Group 477" transform="translate(35.687 0)">
          <g id="Group_476" data-name="Group 476" clip-path="url(#clip-path)">
            <g id="Group_475" data-name="Group 475" transform="translate(-0.526 34.77)">
              <g id="Group_438" data-name="Group 438" transform="translate(51.384 254.329)">
                <path id="Path_1078" data-name="Path 1078" d="M272.616,329.748c3,1.226,55.362,173.078,55.362,173.078l-61.944.367-32.9-114.986-15.71,115.168-52.465-.366s-3.059-153.887,15.494-191.7Z" transform="translate(-164.774 -311.313)" fill="#f99746"/>
                <line id="Line_9" data-name="Line 9" y1="11.935" x2="19.598" transform="translate(68.363 64.96)" fill="none" stroke="#494949" stroke-linecap="round" stroke-linejoin="round" stroke-width="0.632"/>
              </g>
              <g id="Group_460" data-name="Group 460" transform="translate(0 103.533)">
                <g id="Group_446" data-name="Group 446" transform="translate(149.863 27.516)">
                  <path id="Path_1079" data-name="Path 1079" d="M288.675,205.91s18.734,16.538-9.317,100.055l-26.377,2.575Z" transform="translate(-248.293 -205.91)" fill="#263238"/>
                  <g id="Group_445" data-name="Group 445" transform="translate(0 30.036)">
                    <g id="Group_441" data-name="Group 441" transform="translate(68.517)">
                      <g id="Group_440" data-name="Group 440" transform="translate(22.652)">
                        <g id="Group_439" data-name="Group 439">
                          <path id="Path_1080" data-name="Path 1080" d="M330.187,268.293s-8.284-8.059,1.536-18.8l14.808-16.827a3.312,3.312,0,0,1,4.96.087h0a3.31,3.31,0,0,1,.421,3.68l-5.167,10.377L372.7,233.3a3.59,3.59,0,0,1,5.146,1.841h0a3.591,3.591,0,0,1-1.453,4.315L359.5,249.69l.193.984,18.964-8.075a3.46,3.46,0,0,1,4.505,2.877h0a3.459,3.459,0,0,1-2.353,3.7l-18.455,9.016.111,1.235,17.594-5.235c1.574-.289,4.8-2.088,5.675.682h0c1.166,3.2-2.819,4.228-4.591,4.862l-18.356,6.757.058,1.143,16.8-4.31a2.493,2.493,0,0,1,2.5,2.964h0a2.494,2.494,0,0,1-2.292,2.016l-19.252,5.69s-18.08,9.495-24.929,2.163Z" transform="translate(-326.921 -231.59)" fill="#ffbe9d"/>
                          <path id="Path_1081" data-name="Path 1081" d="M344.34,244.6s4.2,10.069-3.24,17.735" transform="translate(-324.516 -229.384)" fill="none" stroke="#1d0006" stroke-linecap="round" stroke-linejoin="round" stroke-width="0.632"/>
                        </g>
                      </g>
                      <path id="Path_1082" data-name="Path 1082" d="M307.554,262.994l28.962-8.446,10,18.124-32.884,13.074Z" transform="translate(-307.554 -227.697)" fill="#ffbe9d"/>
                    </g>
                    <g id="Group_444" data-name="Group 444" transform="translate(0 25.592)">
                      <path id="Path_1083" data-name="Path 1083" d="M316.694,257.684l12.1-3.258,9.933,20.607-14.994,6.1Z" transform="translate(-237.487 -253.31)" fill="#fff"/>
                      <g id="Group_443" data-name="Group 443">
                        <g id="Group_442" data-name="Group 442">
                          <path id="Path_1084" data-name="Path 1084" d="M261.318,273.772,321.5,253.984a11.2,11.2,0,0,1,13.719,6.477l6.455,15.9a11.2,11.2,0,0,1-5.746,14.41L279,318.008a21.034,21.034,0,0,1-27.19-9.129h0C245.785,297.763,249.542,278.379,261.318,273.772Z" transform="translate(-248.973 -253.472)" fill="#263238"/>
                        </g>
                        <line id="Line_10" data-name="Line 10" x1="11.16" y2="3.527" transform="translate(29.652 10.941)" fill="none" stroke="#1d0006" stroke-linecap="round" stroke-linejoin="round" stroke-width="0.65"/>
                      </g>
                    </g>
                  </g>
                </g>
                <g id="Group_450" data-name="Group 450" transform="translate(55.225)">
                  <g id="Group_447" data-name="Group 447" transform="translate(17.082)">
                    <path id="Path_1085" data-name="Path 1085" d="M272.247,187.631s-15.558-6.05-38.389-5.157l-4.463,10.6,22.887,8.172,22.491-1.181,2.057-3.119Z" transform="translate(-174.737 -182.384)"/>
                    <path id="Path_1086" data-name="Path 1086" d="M182.663,341.1s58.406,33.308,94.289,10.845l4.073-80.222,6.785-55.176-7.411-13.11-22.815-6.428L230.06,199.1l-28.028,44.888Z" transform="translate(-182.663 -179.904)" fill="#f99746"/>
                    <path id="Path_1087" data-name="Path 1087" d="M224.615,197.871s26.07,28.986,54.6,10.678L274.42,196l-15.108-7.586-28.948.364Z" transform="translate(-175.548 -181.362)" fill="#ffbe9d"/>
                  </g>
                  <g id="Group_448" data-name="Group 448" transform="translate(0 0.09)">
                    <path id="Path_1088" data-name="Path 1088" d="M246.194,226.582s-5.3,93.823-22.91,153.715c-1.08,3.673-5.606,5.16-9.285,4.1-8.184-2.347-32.039-20.838-45.941-45.581l20.348-132.407a14.96,14.96,0,0,1,7.376-11.689c7.226-4.212,35.2-7.284,35.2-7.284S247.192,183.985,246.194,226.582Z" transform="translate(-168.058 -181.628)" fill="#263238"/>
                    <path id="Path_1089" data-name="Path 1089" d="M237.117,208.295l-21.352,11.143,3.192-30.691,17.212-6.286Z" transform="translate(-159.967 -182.461)" fill="#263238"/>
                  </g>
                  <g id="Group_449" data-name="Group 449" transform="translate(102.289 5.246)">
                    <path id="Path_1090" data-name="Path 1090" d="M255.521,383.875c-.282,2.384,7.8,3.475,9.343,1.636h0c3.181-4.982,6.266-10.643,6.729-16.536l7.1-106.587,13.277-40.225a13.994,13.994,0,0,0-3.673-14.315,69.635,69.635,0,0,0-19.382-13.083S269.6,264.544,255.521,383.875Z" transform="translate(-255.514 -185.53)" fill="#263238"/>
                    <path id="Path_1091" data-name="Path 1091" d="M270.983,322.778l5.085-66.988,5.345-22.115" transform="translate(-252.89 -178.931)" fill="none" stroke="#1d0006" stroke-linecap="round" stroke-linejoin="round" stroke-width="0.632"/>
                    <path id="Path_1092" data-name="Path 1092" d="M267.032,208.146l13.911,13.822L275.037,197.5l-9-10.634Z" transform="translate(-253.73 -186.87)" fill="#263238"/>
                  </g>
                </g>
                <g id="Group_459" data-name="Group 459" transform="translate(0 11.554)">
                  <g id="Group_451" data-name="Group 451" transform="translate(0.27)">
                    <path id="Path_1093" data-name="Path 1093" d="M208.426,192.263s17,30.979-32.549,99.952L163.984,311.8a23.13,23.13,0,0,1-32.826,7.085h0a23.106,23.106,0,0,1-7.1-30.441C141.259,258.052,176.12,198.2,208.426,192.263Z" transform="translate(-121.072 -192.263)" fill="#263238"/>
                    <line id="Line_11" data-name="Line 11" y1="38.216" x2="29.155" transform="translate(64.089 48.069)" fill="none" stroke="#1d0006" stroke-linecap="round" stroke-linejoin="round" stroke-width="0.632"/>
                  </g>
                  <g id="Group_458" data-name="Group 458" transform="translate(0 86.337)">
                    <g id="Group_454" data-name="Group 454" transform="translate(42.831 62.32)">
                      <g id="Group_453" data-name="Group 453" transform="translate(15.927 20.996)">
                        <g id="Group_452" data-name="Group 452">
                          <path id="Path_1094" data-name="Path 1094" d="M179.559,342.1s6.535-9.533,18.79-1.683l19.1,11.732a3.313,3.313,0,0,1,.758,4.9h0a3.313,3.313,0,0,1-3.554,1.041l-11.1-3.329,17.722,23.281a3.589,3.589,0,0,1-.939,5.384h0a3.587,3.587,0,0,1-4.5-.7l-12.956-14.908-.937.357,11.18,17.317a3.458,3.458,0,0,1-2.069,4.928h0a3.458,3.458,0,0,1-4.042-1.69l-12.022-16.654-1.2.319,8.151,16.448c.552,1.5,2.422,4.874-1.35,6.511h0c-1.42.463-3.38-3.11-3.929-4.5l-9.78-16.94-1.115.253,7.1,15.818a2.492,2.492,0,0,1-2.5,2.971h0a2.492,2.492,0,0,1-2.375-1.916l-8.881-18s-12.431-16.2-6.368-24.2Z" transform="translate(-171.079 -337.315)" fill="#ffbe9d"/>
                        </g>
                      </g>
                      <path id="Path_1095" data-name="Path 1095" d="M178.849,319.364l13.247,27.1L175.935,359.4l-18.474-30.183Z" transform="translate(-157.461 -319.364)" fill="#ffbe9d"/>
                    </g>
                    <g id="Group_457" data-name="Group 457">
                      <path id="Path_1096" data-name="Path 1096" d="M184.97,327.6l5.268,11.372L171.618,352.26l-8.558-13.739Z" transform="translate(-113.68 -255.648)" fill="#fff"/>
                      <g id="Group_456" data-name="Group 456">
                        <g id="Group_455" data-name="Group 455">
                          <path id="Path_1097" data-name="Path 1097" d="M165.07,274.848,194.8,330.8a11.2,11.2,0,0,1-4.05,14.621l-14.571,9.063A11.2,11.2,0,0,1,161,351.268l-36.518-51.475a21.031,21.031,0,0,1,4.372-28.345h0C138.787,263.619,158.528,264.026,165.07,274.848Z" transform="translate(-120.841 -266.081)" fill="#263238"/>
                        </g>
                        <line id="Line_12" data-name="Line 12" x1="8.614" y1="15.849" transform="translate(42.05 5.029)" fill="none" stroke="#1d0006" stroke-linecap="round" stroke-linejoin="round" stroke-width="0.632"/>
                        <path id="Path_1098" data-name="Path 1098" d="M171.079,296.954l15.54,28.949a10.022,10.022,0,0,1-1.068,11.082h0" transform="translate(-112.32 -260.845)" fill="none" stroke="#1d0006" stroke-linecap="round" stroke-linejoin="round" stroke-width="0.632"/>
                      </g>
                    </g>
                  </g>
                </g>
              </g>
              <g id="Group_474" data-name="Group 474" transform="translate(119.087)">
                <path id="Path_1099" data-name="Path 1099" d="M239.472,116.2s-12.253-3.729-16.383,8.809,22.822,32.418,22.822,32.418Z" transform="translate(-222.659 -90.164)" fill="#263238"/>
                <path id="Path_1100" data-name="Path 1100" d="M252.474,101.823s27.472-15.132,45.082-3.667c22.659,14.755-8.649,38.989-8.649,38.989S249.047,129.09,252.474,101.823Z" transform="translate(-217.638 -93.864)" fill="#263238"/>
                <path id="Path_1101" data-name="Path 1101" d="M229.982,129.886l27.776,44.64c21.538,2.994,39.1-12.586,41.956-33.142s-10.071-38.3-31.61-41.3S232.839,109.33,229.982,129.886Z" transform="translate(-221.417 -92.884)" fill="#263238"/>
                <circle id="Ellipse_107" data-name="Ellipse 107" cx="9.724" cy="9.724" r="9.724" transform="matrix(0.365, -0.931, 0.931, 0.365, 62.697, 69.977)" fill="#ffbe9d"/>
                <path id="Path_1102" data-name="Path 1102" d="M271.813,167.746l-5.691,40.426-30.062-8.831,16.782-50.989Z" transform="translate(-220.387 -84.623)" fill="#ffbe9d"/>
                <path id="Path_1103" data-name="Path 1103" d="M266.9,185.665s-15.036-10.094-18.5-29.331l21.006,12.983Z" transform="translate(-218.293 -83.269)" fill="#cb8d6d"/>
                <path id="Path_1104" data-name="Path 1104" d="M295.305,119.055a33.9,33.9,0,0,1,4.772,14.511c.585,9.695,1.219,23.894-2.9,32.207-5.829,11.766-13.75,21.6-32.425,16.738a21.1,21.1,0,0,1-4.415-1.718c-6.28-3.263-21.488-13.46-20.831-35.417C240.967,96.66,280.589,97.6,295.305,119.055Z" transform="translate(-219.805 -91.972)" fill="#ffbe9d"/>
                <path id="Path_1105" data-name="Path 1105" d="M250.848,145.07a29.627,29.627,0,0,0-9.254-23.614L233.118,135.8l12.421,11.282Z" transform="translate(-220.885 -89.184)" fill="#263238"/>
                <g id="Group_462" data-name="Group 462" transform="translate(8.127 49.391)">
                  <g id="Group_461" data-name="Group 461">
                    <path id="Path_1106" data-name="Path 1106" d="M229.734,147.981a10.287,10.287,0,1,0,8.561-11.762A10.286,10.286,0,0,0,229.734,147.981Z" transform="translate(-229.608 -136.093)" fill="#ffbe9d"/>
                    <path id="Path_1107" data-name="Path 1107" d="M235.658,142.476s5.675-.674,7.758,6.656" transform="translate(-228.581 -135.013)" fill="none" stroke="#1d0006" stroke-linecap="round" stroke-linejoin="round" stroke-width="0.632"/>
                    <path id="Path_1180" data-name="Path 1180" d="M508.081,164.893a6.751,6.751,0,0,0,1.132-12.791l-.274.643c1.778.758.9,3.494,1.328,5.375.747,3.252,2.465,3.839-2.847,5.1s-4.4-.769-5.142-4.021c-.484-2.106-1.405-3.864.181-5.334l-.475-.512a6.751,6.751,0,0,0,6.1,11.535Z" transform="translate(-498.486 -135.373)" fill="#263238"/>
                  </g>
                </g>
                <path id="Path_1108" data-name="Path 1108" d="M244.149,131.073s11.9-6.911,8.549-19.748l-11.967.054-6.268,11.965Z" transform="translate(-220.657 -90.902)" fill="#263238"/>
                <path id="Path_1109" data-name="Path 1109" d="M251.378,114.116s8.725,6.553,24.153,2.678,19.549,2.991,19.549,2.991-10.776-21.17-38.835-15.918S251.378,114.116,251.378,114.116Z" transform="translate(-219.316 -92.309)" fill="#263238"/>
                <path id="Path_1110" data-name="Path 1110" d="M261.807,100.962s-13.029-6.687-21.992-1.545-10.85,21.488-4.85,26.276C234.965,125.693,251.881,103.161,261.807,100.962Z" transform="translate(-221.16 -93.252)" fill="#263238"/>
                <g id="Group_473" data-name="Group 473" transform="translate(28.242 30.593)">
                  <g id="Group_471" data-name="Group 471" transform="translate(10.562)">
                    <path id="Path_1111" data-name="Path 1111" d="M283.615,124.724s-1.31,2.718,2.619,3.721a20.968,20.968,0,0,1,5.418,1.912,2.3,2.3,0,0,0,2.715-.422h0a2.165,2.165,0,0,0,.2-2.054c-.512-1.6-1.221-4.092-4.841-5.061C285.074,121.575,283.615,124.724,283.615,124.724Z" transform="translate(-251.161 -119.596)" fill="#2a353a"/>
                    <path id="Path_1112" data-name="Path 1112" d="M276.734,123.365s1.041,3.768-4.71,3.768a67.15,67.15,0,0,0-12.19,1.587,3.574,3.574,0,0,1-3.652-1.375h0a1.973,1.973,0,0,1,.318-2.6,22.886,22.886,0,0,1,12.565-4.726C275.885,119.947,276.734,123.365,276.734,123.365Z" transform="translate(-255.836 -120.021)" fill="#2a353a"/>
                    <g id="Group_465" data-name="Group 465" transform="translate(2.312 17.796)">
                      <g id="Group_464" data-name="Group 464" transform="translate(0 0.132)">
                        <path id="Path_1113" data-name="Path 1113" d="M275.19,141.636s-2.978-11.2-17.377-3.7C257.813,137.933,263,147.109,275.19,141.636Z" transform="translate(-257.813 -135.349)" fill="#fff"/>
                        <g id="Group_463" data-name="Group 463" clip-path="url(#clip-path-2)">
                          <path id="Path_1114" data-name="Path 1114" d="M271.6,139.257a5.015,5.015,0,1,1-5.22-4.8A5.015,5.015,0,0,1,271.6,139.257Z" transform="translate(-257.175 -135.502)"/>
                        </g>
                      </g>
                      <path id="Path_1116" data-name="Path 1116" d="M257.813,137.952c3.259-3.1,8.583-2.7,8.583-2.7,8.39.326,8.794,6.4,8.794,6.4" transform="translate(-257.813 -135.236)" fill="none" stroke="#1d0006" stroke-linecap="round" stroke-linejoin="round" stroke-width="1.172"/>
                    </g>
                    <g id="Group_468" data-name="Group 468" transform="translate(29.558 20.749)">
                      <g id="Group_467" data-name="Group 467" transform="translate(0 0.01)">
                        <path id="Path_1117" data-name="Path 1117" d="M281.108,142.019s3.411-9.26,11.314-.44C292.422,141.579,286.377,149.323,281.108,142.019Z" transform="translate(-281.108 -137.77)" fill="#fff"/>
                        <g id="Group_466" data-name="Group 466" clip-path="url(#clip-path-3)">
                          <path id="Path_1118" data-name="Path 1118" d="M283.223,140.9c-.4,2.449.793,4.68,2.656,4.981s3.7-1.441,4.091-3.89-.793-4.68-2.656-4.981S283.618,138.452,283.223,140.9Z" transform="translate(-280.762 -137.905)"/>
                        </g>
                      </g>
                      <path id="Path_1120" data-name="Path 1120" d="M292.422,141.581a6.484,6.484,0,0,0-2.322-2.718,6.419,6.419,0,0,0-4.648-1.013,5.415,5.415,0,0,0-4.344,4.171" transform="translate(-281.108 -137.761)" fill="none" stroke="#1d0006" stroke-linecap="round" stroke-linejoin="round" stroke-width="1.255"/>
                    </g>
                    <path id="Path_1121" data-name="Path 1121" d="M278.517,143.581l3.214,7.152-3.373,1.887" transform="translate(-252.017 -116.025)" fill="none" stroke="#1d0006" stroke-linecap="round" stroke-linejoin="round" stroke-width="0.61"/>
                    <g id="Group_470" data-name="Group 470" transform="translate(11.226 37.839)">
                      <path id="Path_1122" data-name="Path 1122" d="M281.923,155.255l-16.4-2.882s-1.425,7.652,7.229,8.991S281.923,155.255,281.923,155.255Z" transform="translate(-265.434 -152.373)"/>
                      <g id="Group_469" data-name="Group 469" clip-path="url(#clip-path-4)">
                        <path id="Path_1123" data-name="Path 1123" d="M282.861,158.358l-19.353-3.321,1.189-4.858,22.3,1.965Z" transform="translate(-265.761 -152.745)" fill="#fff"/>
                        <path id="Path_1124" data-name="Path 1124" d="M263.492,162.811a5.527,5.527,0,1,0,4.186-6.6A5.527,5.527,0,0,0,263.492,162.811Z" transform="translate(-265.787 -151.745)" fill="#eb9a70"/>
                      </g>
                    </g>
                  </g>
                  <g id="Group_472" data-name="Group 472" transform="translate(0 10.096)">
                    <path id="Path_1126" data-name="Path 1126" d="M265.521,129.021l12.652,18.4s-4.24,7.5-10.571,6.446L254.813,135.9S258.675,128.312,265.521,129.021Z" transform="translate(-245.448 -128.599)" fill="#fff" opacity="0.22"/>
                    <path id="Path_1127" data-name="Path 1127" d="M290.836,129.8l10.739,18.259s-3.737,7.535-9.193,6.542L281.52,136.778S284.931,129.159,290.836,129.8Z" transform="translate(-240.918 -128.465)" fill="#fff" opacity="0.22"/>
                    <path id="Path_1128" data-name="Path 1128" d="M279.59,142.023A12.948,12.948,0,1,1,267.07,128.66,12.947,12.947,0,0,1,279.59,142.023Z" transform="translate(-245.636 -128.653)" fill="none" stroke="#2a353a" stroke-miterlimit="10" stroke-width="0.793"/>
                    <path id="Path_1129" data-name="Path 1129" d="M302.888,142.661c-.271,7.143-5.494,12.8-11.663,12.638s-10.949-6.085-10.676-13.229,5.494-12.8,11.662-12.638S303.161,135.518,302.888,142.661Z" transform="translate(-241.085 -128.522)" fill="none" stroke="#2a353a" stroke-miterlimit="10" stroke-width="0.737"/>
                    <path id="Path_1130" data-name="Path 1130" d="M275.836,140.169a6.1,6.1,0,0,1,5.512.179" transform="translate(-241.882 -126.799)" fill="none" stroke="#2a353a" stroke-miterlimit="10" stroke-width="0.793"/>
                    <line id="Line_13" data-name="Line 13" y1="2.843" x2="8.14" transform="translate(0 13.098)" fill="none" stroke="#2a353a" stroke-miterlimit="10" stroke-width="0.793"/>
                  </g>
                </g>
              </g>
            </g>
          </g>
        </g>
      </g>
      <g id="Group_511" data-name="Group 511" transform="translate(407.808 67.965)">
        <g id="Group_480" data-name="Group 480" transform="translate(106.826 79.842)">
          <path id="Path_1131" data-name="Path 1131" d="M633.393,511.679H476.487A15.648,15.648,0,0,1,460.9,494.607l31.813-347.984A15.647,15.647,0,0,1,508.3,132.4H665.206a15.649,15.649,0,0,1,15.583,17.073L648.975,497.456A15.646,15.646,0,0,1,633.393,511.679Z" transform="translate(-441.444 -132.4)" fill="#343030"/>
          <path id="Path_1132" data-name="Path 1132" d="M616.811,511.679H459.905a15.647,15.647,0,0,1-15.583-17.071l31.812-347.984A15.648,15.648,0,0,1,491.717,132.4H648.623a15.647,15.647,0,0,1,15.583,17.073L632.393,497.456A15.647,15.647,0,0,1,616.811,511.679Z" transform="translate(-444.256 -132.4)" fill="#fff"/>
          <path id="Path_1133" data-name="Path 1133" d="M648.623,142.25a5.8,5.8,0,0,1,5.774,6.325L622.584,496.559a5.769,5.769,0,0,1-5.773,5.27H459.905a5.8,5.8,0,0,1-5.774-6.326l31.812-347.982a5.771,5.771,0,0,1,5.774-5.27H648.623m0-9.85H491.717a15.648,15.648,0,0,0-15.583,14.224L444.323,494.607a15.647,15.647,0,0,0,15.583,17.071H616.811a15.647,15.647,0,0,0,15.583-14.222l31.812-347.984A15.647,15.647,0,0,0,648.623,132.4Z" transform="translate(-444.256 -132.4)" fill="#343030"/>
          <g id="Group_479" data-name="Group 479" transform="translate(71.647 1.178)">
            <path id="Path_1134" data-name="Path 1134" d="M593.072,153.718H514.336a8.822,8.822,0,0,1-8.765-9.813l1.091-10.5h96.49l-1.316,12.483A8.821,8.821,0,0,1,593.072,153.718Z" transform="translate(-505.514 -133.407)" fill="#343030"/>
            <line id="Line_14" data-name="Line 14" x2="39.75" transform="translate(26.009 8.869)" fill="none" stroke="#fff" stroke-linecap="round" stroke-linejoin="round" stroke-width="1.053"/>
          </g>
        </g>
        <g id="Group_510" data-name="Group 510" transform="translate(0 0)">
          <g id="Group_509" data-name="Group 509" transform="translate(0)" clip-path="url(#clip-path-5)">
            <g id="Group_508" data-name="Group 508" transform="translate(19.926 26.343)">
              <g id="Group_483" data-name="Group 483" transform="translate(137.663 230.855)">
                <path id="Path_1135" data-name="Path 1135" d="M516.588,292.09c-27.753,108.033-33.93,189.534-33.93,189.534l51.017-3.634,43.754-162.837Z" transform="translate(-482.658 -276.824)" fill="#263238"/>
                <g id="Group_482" data-name="Group 482" transform="translate(38.933)">
                  <g id="Group_481" data-name="Group 481">
                    <path id="Path_1136" data-name="Path 1136" d="M615.04,382.588l14.8,108.572L578.7,480.218,515.945,290.553,566.8,279.038l14.124,14.107C595.8,314.146,610.778,351.319,615.04,382.588Z" transform="translate(-515.945 -279.038)" fill="#263238"/>
                  </g>
                  <path id="Path_1137" data-name="Path 1137" d="M548.937,384.678,537.7,351.987l-12.03-4.706" transform="translate(-514.295 -267.464)" fill="none" stroke="#1d0006" stroke-linecap="round" stroke-linejoin="round" stroke-width="0.654"/>
                </g>
              </g>
              <g id="Group_494" data-name="Group 494" transform="translate(0 129.956)">
                <g id="Group_488" data-name="Group 488" transform="translate(0 9.619)">
                  <g id="Group_484" data-name="Group 484" transform="translate(82.645)">
                    <path id="Path_1138" data-name="Path 1138" d="M457.808,239.091l-21.192,56.4A15.927,15.927,0,0,0,445.59,315.8h0a15.927,15.927,0,0,0,20.44-8.14l27.764-60.647Z" transform="translate(-435.618 -194.534)" fill="#ffbe9d"/>
                    <path id="Path_1139" data-name="Path 1139" d="M485.228,200.995s-10.814.771-21.494,9.676-24.207,48.623-24.207,48.623,7.349,15.937,51.531,21.571Z" transform="translate(-434.955 -200.995)" fill="#f99746"/>
                  </g>
                  <g id="Group_487" data-name="Group 487" transform="translate(0 1.652)">
                    <g id="Group_485" data-name="Group 485">
                      <path id="Path_1140" data-name="Path 1140" d="M414.476,233.746l-.4-3.5a30.215,30.215,0,0,0-4.786-13.177L404.7,210.1a3.2,3.2,0,0,0-4.857-.582h0a4.1,4.1,0,0,0-1.035,4.473l3.173,8.263L378.307,203a2.482,2.482,0,0,0-3.688.523l-.55.839a2.482,2.482,0,0,0,.328,3.125l15.459,13.521L369.95,207.936a2.48,2.48,0,0,0-3.639.751l-.367.64a2.48,2.48,0,0,0,.663,3.219l16.945,12.549-14.956-6.7a2.48,2.48,0,0,0-3.5,1.653l-.075.311a2.483,2.483,0,0,0,1.144,2.711l15.041,8.068-8.69-2.366a2.481,2.481,0,0,0-3.463,2.38h0a2.483,2.483,0,0,0,1.288,2.074l38.169,19.846,4.2-8.8A19.307,19.307,0,0,0,414.476,233.746Z" transform="translate(-364.957 -202.407)" fill="#ffbe9d"/>
                      <path id="Path_1141" data-name="Path 1141" d="M396.806,219.377s-3.25,6.052.346,13.859" transform="translate(-359.784 -199.529)" fill="none" stroke="#1d0006" stroke-linecap="round" stroke-linejoin="round" stroke-width="0.525"/>
                    </g>
                    <g id="Group_486" data-name="Group 486" transform="translate(39.024 33.033)">
                      <path id="Path_1142" data-name="Path 1142" d="M470.673,296.708,408.718,230.65l-10.4,11.291,46.522,69.533Z" transform="translate(-398.322 -230.65)" fill="#ffbe9d"/>
                      <line id="Line_15" data-name="Line 15" x2="10.715" y2="11.501" transform="translate(52.608 45.007)" fill="none" stroke="#1d0006" stroke-linecap="round" stroke-linejoin="round" stroke-width="0.64"/>
                    </g>
                  </g>
                </g>
                <g id="Group_489" data-name="Group 489" transform="translate(114.237 0.027)">
                  <path id="Path_1143" data-name="Path 1143" d="M494.279,199.888s-20.873,2.163-29.166,10.364,6.843,55.929,6.843,55.929l43.317,64.886s32.618,8.429,67.481-15.224L581.6,218.622l-12.93-16.015c-4.87-6.033-17.077-10.525-24.789-9.719l-17.936.587Z" transform="translate(-462.629 -192.794)" fill="#f99746"/>
                  <path id="Path_1144" data-name="Path 1144" d="M481.409,273.45s-13.118-19.181-13.962-32.812" transform="translate(-461.811 -184.679)" fill="none" stroke="#78593d" stroke-linecap="round" stroke-linejoin="round" stroke-width="0.64"/>
                </g>
                <g id="Group_493" data-name="Group 493" transform="translate(128.788)">
                  <g id="Group_490" data-name="Group 490" transform="translate(49.634)">
                    <path id="Path_1145" data-name="Path 1145" d="M589.358,231.774s-12.943,17.88-33.026,23.254L568.27,231.2Z" transform="translate(-510.922 -186.253)" fill="#1f0c03"/>
                    <path id="Path_1146" data-name="Path 1146" d="M541.384,249.673l29.267,52.368a15.86,15.86,0,0,0,21.214,6.228h0a15.86,15.86,0,0,0,6.947-20.778l-28.275-60.1Z" transform="translate(-513.457 -186.898)" fill="#ffbe9d"/>
                    <path id="Path_1147" data-name="Path 1147" d="M531.176,193.139a45.184,45.184,0,0,1,39.365,14.889c20.142,22.458,25.4,30.263,25.4,30.263s-30.688,6.628-49.171,24.419L517.507,227.9Z" transform="translate(-517.507 -192.771)" fill="#f99746"/>
                    <line id="Line_16" data-name="Line 16" x1="13.236" y1="22.103" transform="translate(16.029 47.837)" fill="none" stroke="#78593d" stroke-linecap="round" stroke-linejoin="round" stroke-width="0.64"/>
                  </g>
                  <g id="Group_492" data-name="Group 492" transform="translate(0 90.892)">
                    <path id="Path_1148" data-name="Path 1148" d="M583.962,270.483l-70.775,62.1,9.075,12.547,75.575-44.863Z" transform="translate(-468.606 -270.483)" fill="#ffbe9d"/>
                    <g id="Group_491" data-name="Group 491" transform="translate(0 52.343)">
                      <path id="Path_1149" data-name="Path 1149" d="M521.132,318.89l-3.256-1.35a30.227,30.227,0,0,0-13.842-2.22l-8.317.625a3.2,3.2,0,0,0-2.87,3.963h0a4.1,4.1,0,0,0,3.406,3.077l8.765,1.242-28.329,11.336a2.481,2.481,0,0,0-1.335,3.477l.464.888a2.481,2.481,0,0,0,2.891,1.232l19.329-6.94-21.1,11.043a2.481,2.481,0,0,0-1.112,3.546l.38.632a2.482,2.482,0,0,0,3.137.985l19.2-8.712-13.124,9.815a2.481,2.481,0,0,0-.254,3.858l.236.216a2.478,2.478,0,0,0,2.924.318l14.36-9.226-6.29,6.446a2.48,2.48,0,0,0,.4,4.182h0a2.482,2.482,0,0,0,2.439-.117l35.893-23.716-5.649-7.949A19.311,19.311,0,0,0,521.132,318.89Z" transform="translate(-475.07 -315.235)" fill="#ffbe9d"/>
                    </g>
                  </g>
                </g>
              </g>
              <g id="Group_507" data-name="Group 507" transform="translate(92.473)">
                <g id="Group_495" data-name="Group 495" transform="translate(53.259)">
                  <path id="Path_1150" data-name="Path 1150" d="M539.908,120.4c-7.708,8.428-28.855,12.4-38.024,4.016s-8.612-29.7-.905-38.133,22.886-4.31,32.053,4.075S547.615,111.976,539.908,120.4Z" transform="translate(-488.616 -81.659)" fill="#263238"/>
                  <path id="Path_1151" data-name="Path 1151" d="M520.537,124.576c-2.419,5.15-11.176,6.131-19.559,2.193s-13.216-11.305-10.8-16.454,11.329-6.8,19.711-2.858S522.956,119.428,520.537,124.576Z" transform="translate(-489.557 -77.654)" fill="#6a7276"/>
                </g>
                <path id="Path_1152" data-name="Path 1152" d="M478.713,114.785s-25.817-4.667-33.405,8.268,20.862,27.111,20.862,27.111Z" transform="translate(-444.021 -76.18)" fill="#263238"/>
                <ellipse id="Ellipse_108" data-name="Ellipse 108" cx="39.44" cy="37.642" rx="39.44" ry="37.642" transform="translate(3.129 35.299) rotate(-10.843)" fill="#263238"/>
                <g id="Group_496" data-name="Group 496" transform="translate(2.174 73.11)">
                  <path id="Path_1153" data-name="Path 1153" d="M464.88,179.369a10.687,10.687,0,0,0,1.793-20.248l-.435,1.019a9.579,9.579,0,1,1-10.256,1.782l-.752-.813a10.687,10.687,0,0,0,9.65,18.26Z" transform="translate(-444.875 -141.632)" fill="#263238"/>
                  <circle id="Ellipse_109" data-name="Ellipse 109" cx="9.741" cy="9.741" r="9.741" transform="translate(0 15.529) rotate(-52.858)" fill="#ffbe9d"/>
                </g>
                <path id="Path_1154" data-name="Path 1154" d="M478.784,173.631l7.619,34,24.609-4.231L490.9,153.678Z" transform="translate(-438.125 -69.445)" fill="#ffbe9d"/>
                <path id="Path_1155" data-name="Path 1155" d="M482.39,189.334s12.622-8.951,15.1-28.373L478.784,172.4Z" transform="translate(-438.125 -68.209)" fill="#cb8d6d"/>
                <path id="Path_1156" data-name="Path 1156" d="M455.366,127.953a14.227,14.227,0,0,0-3.037,8.864c-.077,9.5-.582,26.317,4.518,35.412,6.633,11.827,18.61,18.821,34.585,12.493,0,0,21.359-8.1,20.625-34.046C510.887,109.334,472.685,106.53,455.366,127.953Z" transform="translate(-442.62 -76.04)" fill="#ffbe9d"/>
                <g id="Group_503" data-name="Group 503" transform="translate(7.499 55.1)">
                  <path id="Path_1157" data-name="Path 1157" d="M464.731,162.658s.049,4.192,5.843,3.251a8.038,8.038,0,0,0,6.677-5.961Z" transform="translate(-448.007 -123.481)" fill="#eb9a70"/>
                  <path id="Path_1158" data-name="Path 1158" d="M461.029,135.116s1.6,2.177-2.2,3.567a23.278,23.278,0,0,0-5.17,2.38,2.555,2.555,0,0,1-2.74,0h0a1.677,1.677,0,0,1-.419-1.75,6.028,6.028,0,0,1,4.255-5.025C459.238,132.588,461.029,135.116,461.029,135.116Z" transform="translate(-450.432 -127.933)" fill="#2a353a"/>
                  <path id="Path_1159" data-name="Path 1159" d="M469.083,132.562s-.706,3.007,4.993,2.193a86.457,86.457,0,0,1,12.216-.519,4.282,4.282,0,0,0,3.5-1.56h0a1.255,1.255,0,0,0-.539-1.925,26.657,26.657,0,0,0-12.859-1.809C469.63,129.849,469.083,132.562,469.083,132.562Z" transform="translate(-447.274 -128.769)" fill="#2a353a"/>
                  <g id="Group_499" data-name="Group 499" transform="translate(24.372 13.709)">
                    <g id="Group_498" data-name="Group 498" transform="translate(0 0.217)">
                      <path id="Path_1160" data-name="Path 1160" d="M471.27,147.745s1.988-11.435,17.014-5.22C488.284,142.525,483.919,152.137,471.27,147.745Z" transform="translate(-471.27 -140.675)" fill="#fff"/>
                      <g id="Group_497" data-name="Group 497" clip-path="url(#clip-path-6)">
                        <path id="Path_1161" data-name="Path 1161" d="M473.6,145.1a5.024,5.024,0,1,0,4.787-5.249A5.024,5.024,0,0,0,473.6,145.1Z" transform="translate(-470.876 -140.816)"/>
                      </g>
                    </g>
                    <path id="Path_1163" data-name="Path 1163" d="M488.284,142.557c-3.524-2.811-8.8-1.939-8.8-1.939-8.343,1.062-8.214,7.159-8.214,7.159" transform="translate(-471.27 -140.49)" fill="#2a353a" stroke="#2a353a" stroke-linecap="round" stroke-linejoin="round" stroke-width="1.174"/>
                  </g>
                  <g id="Group_502" data-name="Group 502" transform="translate(3.265 18.84)">
                    <g id="Group_501" data-name="Group 501">
                      <path id="Path_1164" data-name="Path 1164" d="M464.553,148.691s-4.215-8.94-11.329.554C453.224,149.245,459.935,156.443,464.553,148.691Z" transform="translate(-453.224 -144.877)" fill="#fff"/>
                      <g id="Group_500" data-name="Group 500" clip-path="url(#clip-path-7)">
                        <path id="Path_1165" data-name="Path 1165" d="M461.706,147.778c.611,2.409-.381,4.739-2.214,5.2s-3.814-1.112-4.425-3.522.381-4.739,2.214-5.2S461.1,145.367,461.706,147.778Z" transform="translate(-452.942 -144.996)"/>
                      </g>
                    </g>
                    <path id="Path_1167" data-name="Path 1167" d="M453.224,149.244a6.515,6.515,0,0,1,2.078-2.916,6.429,6.429,0,0,1,4.55-1.419,5.425,5.425,0,0,1,4.7,3.78" transform="translate(-453.224 -144.875)" fill="#2a353a" stroke="#2a353a" stroke-linecap="round" stroke-linejoin="round" stroke-width="1.257"/>
                  </g>
                  <path id="Path_1168" data-name="Path 1168" d="M464.925,152.76l-1.258,3.481,2.529,1.137" transform="translate(-448.187 -124.7)" fill="none" stroke="#1d0006" stroke-linecap="round" stroke-linejoin="round" stroke-width="0.611"/>
                  <path id="Path_1169" data-name="Path 1169" d="M464.731,162.691s-.138-1.538,2.452-2.3c3.841-1.133,10.069-.409,10.069-.409A22.945,22.945,0,0,1,464.731,162.691Z" transform="translate(-448.007 -123.514)" fill="#eb9a70"/>
                  <path id="Path_1170" data-name="Path 1170" d="M464.092,162.613s5.633,1.392,13.882-2.974" transform="translate(-448.115 -123.534)" fill="none" stroke="#1d0006" stroke-linecap="round" stroke-linejoin="round" stroke-width="0.611"/>
                  <path id="Path_1171" data-name="Path 1171" d="M470.65,163.434c.05.308-.7.687-1.682.847s-1.813.039-1.863-.269.7-.688,1.682-.847S470.6,163.125,470.65,163.434Z" transform="translate(-447.605 -122.947)" fill="#fff" opacity="0.3"/>
                </g>
                <path id="Path_1172" data-name="Path 1172" d="M497.461,151.968a19.131,19.131,0,0,1-4.53-15.054c1.332-11.616,8.4-16.446,8.4-16.446l10.895,18.765Z" transform="translate(-435.749 -75.077)" fill="#263238"/>
                <g id="Group_505" data-name="Group 505" transform="translate(58.43 64.773)">
                  <g id="Group_504" data-name="Group 504">
                    <circle id="Ellipse_110" data-name="Ellipse 110" cx="9.932" cy="9.932" r="9.932" transform="translate(0 8.248) rotate(-24.533)" fill="#ffbe9d"/>
                    <path id="Path_1173" data-name="Path 1173" d="M508.8,145.826s-5.505-.37-7.152,6.8" transform="translate(-492.678 -135.549)" fill="none" stroke="#1d0006" stroke-linecap="round" stroke-linejoin="round" stroke-width="0.611"/>
                  </g>
                  <path id="Path_1174" data-name="Path 1174" d="M512.9,172.349a10.686,10.686,0,0,0,1.792-20.247l-.434,1.018A9.578,9.578,0,1,1,504,154.9l-.752-.811a10.687,10.687,0,0,0,9.652,18.259Z" transform="translate(-492.987 -134.484)" fill="#263238"/>
                </g>
                <path id="Path_1175" data-name="Path 1175" d="M504.411,126.3s-19.689,6.633-38.711,1.685a19.33,19.33,0,0,0-6.667-.67,7.166,7.166,0,0,0-4.586,1.905s8.2-16.743,34.32-17.562S504.411,126.3,504.411,126.3Z" transform="translate(-442.253 -76.576)" fill="#263238"/>
                <g id="Group_506" data-name="Group 506" transform="translate(38.129 126.935)">
                  <path id="Path_1176" data-name="Path 1176" d="M485.3,200.942l9.957,10.471,14.652-14.7-12.6-3.626Z" transform="translate(-475.149 -189.696)" fill="#ffbe9d"/>
                  <path id="Path_1177" data-name="Path 1177" d="M493.811,211.9l13.54-17.5-1.726-4.214,15.027,3.729-11.063,25.2Z" transform="translate(-473.706 -190.187)" fill="#ad6830"/>
                  <path id="Path_1178" data-name="Path 1178" d="M496.727,210.951,485.376,219.8l-8.755-17.579,9.154-6.412.995,4.673Z" transform="translate(-476.621 -189.234)" fill="#ad6830"/>
                </g>
              </g>
            </g>
          </g>
        </g>
      </g>
      <path id="Path_1179" data-name="Path 1179" d="M44.645,456.68h0Z" transform="translate(2.602 70.405)" fill="#f9a97f" stroke="#f9a97f" stroke-linecap="round" stroke-linejoin="round" stroke-width="0.718"/>
    </g>
  </g>
</svg>
